<mxfile host="app.diagrams.net" modified="2023-05-22T17:03:20.671Z" agent="Mozilla/5.0 (Windows NT 10.0; Win64; x64) AppleWebKit/537.36 (KHTML, like Gecko) Chrome/113.0.0.0 Safari/537.36" etag="gjwSeZ9fJXHyn8D7rF0s" version="21.3.2" type="device" pages="2">
  <diagram name="ClassDiagrams" id="LH60rEFVuk_ibwT4XKCd">
    <mxGraphModel dx="1032" dy="1114" grid="1" gridSize="10" guides="1" tooltips="1" connect="1" arrows="1" fold="1" page="1" pageScale="1" pageWidth="827" pageHeight="1169" math="0" shadow="0">
      <root>
        <mxCell id="0" />
        <mxCell id="1" parent="0" />
        <mxCell id="oG5_mvqdqvmXoVqTaZC8-1" value="main" style="swimlane;fontStyle=1;align=center;verticalAlign=top;childLayout=stackLayout;horizontal=1;startSize=26;horizontalStack=0;resizeParent=1;resizeParentMax=0;resizeLast=0;collapsible=1;marginBottom=0;whiteSpace=wrap;html=1;" parent="1" vertex="1">
          <mxGeometry x="220" y="842" width="160" height="34" as="geometry" />
        </mxCell>
        <mxCell id="oG5_mvqdqvmXoVqTaZC8-3" value="" style="line;strokeWidth=1;fillColor=none;align=left;verticalAlign=middle;spacingTop=-1;spacingLeft=3;spacingRight=3;rotatable=0;labelPosition=right;points=[];portConstraint=eastwest;strokeColor=inherit;" parent="oG5_mvqdqvmXoVqTaZC8-1" vertex="1">
          <mxGeometry y="26" width="160" height="8" as="geometry" />
        </mxCell>
        <mxCell id="oG5_mvqdqvmXoVqTaZC8-5" value="CountriesHandler" style="swimlane;fontStyle=1;align=center;verticalAlign=top;childLayout=stackLayout;horizontal=1;startSize=26;horizontalStack=0;resizeParent=1;resizeParentMax=0;resizeLast=0;collapsible=1;marginBottom=0;whiteSpace=wrap;html=1;" parent="1" vertex="1">
          <mxGeometry x="20" y="280" width="220" height="268" as="geometry" />
        </mxCell>
        <mxCell id="oG5_mvqdqvmXoVqTaZC8-6" value="- countries: DataFrame" style="text;strokeColor=none;fillColor=none;align=left;verticalAlign=top;spacingLeft=4;spacingRight=4;overflow=hidden;rotatable=0;points=[[0,0.5],[1,0.5]];portConstraint=eastwest;whiteSpace=wrap;html=1;" parent="oG5_mvqdqvmXoVqTaZC8-5" vertex="1">
          <mxGeometry y="26" width="220" height="26" as="geometry" />
        </mxCell>
        <mxCell id="oG5_mvqdqvmXoVqTaZC8-7" value="" style="line;strokeWidth=1;fillColor=none;align=left;verticalAlign=middle;spacingTop=-1;spacingLeft=3;spacingRight=3;rotatable=0;labelPosition=right;points=[];portConstraint=eastwest;strokeColor=inherit;" parent="oG5_mvqdqvmXoVqTaZC8-5" vertex="1">
          <mxGeometry y="52" width="220" height="8" as="geometry" />
        </mxCell>
        <mxCell id="oG5_mvqdqvmXoVqTaZC8-31" value="+ __init__(): void" style="text;strokeColor=none;fillColor=none;align=left;verticalAlign=top;spacingLeft=4;spacingRight=4;overflow=hidden;rotatable=0;points=[[0,0.5],[1,0.5]];portConstraint=eastwest;whiteSpace=wrap;html=1;" parent="oG5_mvqdqvmXoVqTaZC8-5" vertex="1">
          <mxGeometry y="60" width="220" height="26" as="geometry" />
        </mxCell>
        <mxCell id="oG5_mvqdqvmXoVqTaZC8-32" value="+ readCountriesFile(type): void" style="text;strokeColor=none;fillColor=none;align=left;verticalAlign=top;spacingLeft=4;spacingRight=4;overflow=hidden;rotatable=0;points=[[0,0.5],[1,0.5]];portConstraint=eastwest;whiteSpace=wrap;html=1;" parent="oG5_mvqdqvmXoVqTaZC8-5" vertex="1">
          <mxGeometry y="86" width="220" height="26" as="geometry" />
        </mxCell>
        <mxCell id="oG5_mvqdqvmXoVqTaZC8-8" value="+ getUniqueCountries(): Series" style="text;strokeColor=none;fillColor=none;align=left;verticalAlign=top;spacingLeft=4;spacingRight=4;overflow=hidden;rotatable=0;points=[[0,0.5],[1,0.5]];portConstraint=eastwest;whiteSpace=wrap;html=1;" parent="oG5_mvqdqvmXoVqTaZC8-5" vertex="1">
          <mxGeometry y="112" width="220" height="26" as="geometry" />
        </mxCell>
        <mxCell id="oG5_mvqdqvmXoVqTaZC8-33" value="+ setupPrimaryKeys(Dataframe): void" style="text;strokeColor=none;fillColor=none;align=left;verticalAlign=top;spacingLeft=4;spacingRight=4;overflow=hidden;rotatable=0;points=[[0,0.5],[1,0.5]];portConstraint=eastwest;whiteSpace=wrap;html=1;" parent="oG5_mvqdqvmXoVqTaZC8-5" vertex="1">
          <mxGeometry y="138" width="220" height="26" as="geometry" />
        </mxCell>
        <mxCell id="oG5_mvqdqvmXoVqTaZC8-34" value="+ save(): void" style="text;strokeColor=none;fillColor=none;align=left;verticalAlign=top;spacingLeft=4;spacingRight=4;overflow=hidden;rotatable=0;points=[[0,0.5],[1,0.5]];portConstraint=eastwest;whiteSpace=wrap;html=1;" parent="oG5_mvqdqvmXoVqTaZC8-5" vertex="1">
          <mxGeometry y="164" width="220" height="26" as="geometry" />
        </mxCell>
        <mxCell id="oG5_mvqdqvmXoVqTaZC8-35" value="- _addPrimaryKey(Dataframe): void" style="text;strokeColor=none;fillColor=none;align=left;verticalAlign=top;spacingLeft=4;spacingRight=4;overflow=hidden;rotatable=0;points=[[0,0.5],[1,0.5]];portConstraint=eastwest;whiteSpace=wrap;html=1;" parent="oG5_mvqdqvmXoVqTaZC8-5" vertex="1">
          <mxGeometry y="190" width="220" height="26" as="geometry" />
        </mxCell>
        <mxCell id="oG5_mvqdqvmXoVqTaZC8-36" value="- _renameColumns(): void" style="text;strokeColor=none;fillColor=none;align=left;verticalAlign=top;spacingLeft=4;spacingRight=4;overflow=hidden;rotatable=0;points=[[0,0.5],[1,0.5]];portConstraint=eastwest;whiteSpace=wrap;html=1;" parent="oG5_mvqdqvmXoVqTaZC8-5" vertex="1">
          <mxGeometry y="216" width="220" height="26" as="geometry" />
        </mxCell>
        <mxCell id="oG5_mvqdqvmXoVqTaZC8-37" value="- _setNullForSQL(): void" style="text;strokeColor=none;fillColor=none;align=left;verticalAlign=top;spacingLeft=4;spacingRight=4;overflow=hidden;rotatable=0;points=[[0,0.5],[1,0.5]];portConstraint=eastwest;whiteSpace=wrap;html=1;" parent="oG5_mvqdqvmXoVqTaZC8-5" vertex="1">
          <mxGeometry y="242" width="220" height="26" as="geometry" />
        </mxCell>
        <mxCell id="oG5_mvqdqvmXoVqTaZC8-9" value="DemographicsHandler" style="swimlane;fontStyle=1;align=center;verticalAlign=top;childLayout=stackLayout;horizontal=1;startSize=26;horizontalStack=0;resizeParent=1;resizeParentMax=0;resizeLast=0;collapsible=1;marginBottom=0;whiteSpace=wrap;html=1;" parent="1" vertex="1">
          <mxGeometry x="260" y="280" width="230" height="400" as="geometry" />
        </mxCell>
        <mxCell id="oG5_mvqdqvmXoVqTaZC8-10" value="- fertility: Dataframe" style="text;strokeColor=none;fillColor=none;align=left;verticalAlign=top;spacingLeft=4;spacingRight=4;overflow=hidden;rotatable=0;points=[[0,0.5],[1,0.5]];portConstraint=eastwest;whiteSpace=wrap;html=1;" parent="oG5_mvqdqvmXoVqTaZC8-9" vertex="1">
          <mxGeometry y="26" width="230" height="26" as="geometry" />
        </mxCell>
        <mxCell id="oG5_mvqdqvmXoVqTaZC8-39" value="- birthDeath: Dataframe" style="text;strokeColor=none;fillColor=none;align=left;verticalAlign=top;spacingLeft=4;spacingRight=4;overflow=hidden;rotatable=0;points=[[0,0.5],[1,0.5]];portConstraint=eastwest;whiteSpace=wrap;html=1;" parent="oG5_mvqdqvmXoVqTaZC8-9" vertex="1">
          <mxGeometry y="52" width="230" height="26" as="geometry" />
        </mxCell>
        <mxCell id="oG5_mvqdqvmXoVqTaZC8-40" value="- area: Dataframe" style="text;strokeColor=none;fillColor=none;align=left;verticalAlign=top;spacingLeft=4;spacingRight=4;overflow=hidden;rotatable=0;points=[[0,0.5],[1,0.5]];portConstraint=eastwest;whiteSpace=wrap;html=1;" parent="oG5_mvqdqvmXoVqTaZC8-9" vertex="1">
          <mxGeometry y="78" width="230" height="26" as="geometry" />
        </mxCell>
        <mxCell id="oG5_mvqdqvmXoVqTaZC8-41" value="- midYearPopulation: Dataframe" style="text;strokeColor=none;fillColor=none;align=left;verticalAlign=top;spacingLeft=4;spacingRight=4;overflow=hidden;rotatable=0;points=[[0,0.5],[1,0.5]];portConstraint=eastwest;whiteSpace=wrap;html=1;" parent="oG5_mvqdqvmXoVqTaZC8-9" vertex="1">
          <mxGeometry y="104" width="230" height="26" as="geometry" />
        </mxCell>
        <mxCell id="oG5_mvqdqvmXoVqTaZC8-42" value="- midYearPopulation5Year: Dataframe" style="text;strokeColor=none;fillColor=none;align=left;verticalAlign=top;spacingLeft=4;spacingRight=4;overflow=hidden;rotatable=0;points=[[0,0.5],[1,0.5]];portConstraint=eastwest;whiteSpace=wrap;html=1;" parent="oG5_mvqdqvmXoVqTaZC8-9" vertex="1">
          <mxGeometry y="130" width="230" height="26" as="geometry" />
        </mxCell>
        <mxCell id="oG5_mvqdqvmXoVqTaZC8-43" value="- midYearPopulationAge: Dataframe" style="text;strokeColor=none;fillColor=none;align=left;verticalAlign=top;spacingLeft=4;spacingRight=4;overflow=hidden;rotatable=0;points=[[0,0.5],[1,0.5]];portConstraint=eastwest;whiteSpace=wrap;html=1;" parent="oG5_mvqdqvmXoVqTaZC8-9" vertex="1">
          <mxGeometry y="156" width="230" height="26" as="geometry" />
        </mxCell>
        <mxCell id="oG5_mvqdqvmXoVqTaZC8-44" value="- mortality: Dataframe" style="text;strokeColor=none;fillColor=none;align=left;verticalAlign=top;spacingLeft=4;spacingRight=4;overflow=hidden;rotatable=0;points=[[0,0.5],[1,0.5]];portConstraint=eastwest;whiteSpace=wrap;html=1;" parent="oG5_mvqdqvmXoVqTaZC8-9" vertex="1">
          <mxGeometry y="182" width="230" height="26" as="geometry" />
        </mxCell>
        <mxCell id="oG5_mvqdqvmXoVqTaZC8-45" value="- demographicsDfs: Dataframe[ ]" style="text;strokeColor=none;fillColor=none;align=left;verticalAlign=top;spacingLeft=4;spacingRight=4;overflow=hidden;rotatable=0;points=[[0,0.5],[1,0.5]];portConstraint=eastwest;whiteSpace=wrap;html=1;" parent="oG5_mvqdqvmXoVqTaZC8-9" vertex="1">
          <mxGeometry y="208" width="230" height="26" as="geometry" />
        </mxCell>
        <mxCell id="oG5_mvqdqvmXoVqTaZC8-11" value="" style="line;strokeWidth=1;fillColor=none;align=left;verticalAlign=middle;spacingTop=-1;spacingLeft=3;spacingRight=3;rotatable=0;labelPosition=right;points=[];portConstraint=eastwest;strokeColor=inherit;" parent="oG5_mvqdqvmXoVqTaZC8-9" vertex="1">
          <mxGeometry y="234" width="230" height="8" as="geometry" />
        </mxCell>
        <mxCell id="oG5_mvqdqvmXoVqTaZC8-12" value="+ __init__(): void" style="text;strokeColor=none;fillColor=none;align=left;verticalAlign=top;spacingLeft=4;spacingRight=4;overflow=hidden;rotatable=0;points=[[0,0.5],[1,0.5]];portConstraint=eastwest;whiteSpace=wrap;html=1;" parent="oG5_mvqdqvmXoVqTaZC8-9" vertex="1">
          <mxGeometry y="242" width="230" height="26" as="geometry" />
        </mxCell>
        <mxCell id="oG5_mvqdqvmXoVqTaZC8-46" value="+ readDemographicsFiles(): void" style="text;strokeColor=none;fillColor=none;align=left;verticalAlign=top;spacingLeft=4;spacingRight=4;overflow=hidden;rotatable=0;points=[[0,0.5],[1,0.5]];portConstraint=eastwest;whiteSpace=wrap;html=1;" parent="oG5_mvqdqvmXoVqTaZC8-9" vertex="1">
          <mxGeometry y="268" width="230" height="26" as="geometry" />
        </mxCell>
        <mxCell id="oG5_mvqdqvmXoVqTaZC8-47" value="+ getUniqueCountries(): Dataframe" style="text;strokeColor=none;fillColor=none;align=left;verticalAlign=top;spacingLeft=4;spacingRight=4;overflow=hidden;rotatable=0;points=[[0,0.5],[1,0.5]];portConstraint=eastwest;whiteSpace=wrap;html=1;" parent="oG5_mvqdqvmXoVqTaZC8-9" vertex="1">
          <mxGeometry y="294" width="230" height="26" as="geometry" />
        </mxCell>
        <mxCell id="oG5_mvqdqvmXoVqTaZC8-48" value="+ setupPrimaryKeys(Dataframe): void" style="text;strokeColor=none;fillColor=none;align=left;verticalAlign=top;spacingLeft=4;spacingRight=4;overflow=hidden;rotatable=0;points=[[0,0.5],[1,0.5]];portConstraint=eastwest;whiteSpace=wrap;html=1;" parent="oG5_mvqdqvmXoVqTaZC8-9" vertex="1">
          <mxGeometry y="320" width="230" height="26" as="geometry" />
        </mxCell>
        <mxCell id="oG5_mvqdqvmXoVqTaZC8-49" value="+ save(): void" style="text;strokeColor=none;fillColor=none;align=left;verticalAlign=top;spacingLeft=4;spacingRight=4;overflow=hidden;rotatable=0;points=[[0,0.5],[1,0.5]];portConstraint=eastwest;whiteSpace=wrap;html=1;" parent="oG5_mvqdqvmXoVqTaZC8-9" vertex="1">
          <mxGeometry y="346" width="230" height="26" as="geometry" />
        </mxCell>
        <mxCell id="oG5_mvqdqvmXoVqTaZC8-50" value="- _addPrimaryKey(): Dataframe" style="text;strokeColor=none;fillColor=none;align=left;verticalAlign=top;spacingLeft=4;spacingRight=4;overflow=hidden;rotatable=0;points=[[0,0.5],[1,0.5]];portConstraint=eastwest;whiteSpace=wrap;html=1;" parent="oG5_mvqdqvmXoVqTaZC8-9" vertex="1">
          <mxGeometry y="372" width="230" height="28" as="geometry" />
        </mxCell>
        <mxCell id="oG5_mvqdqvmXoVqTaZC8-13" value="IncomeHandler" style="swimlane;fontStyle=1;align=center;verticalAlign=top;childLayout=stackLayout;horizontal=1;startSize=26;horizontalStack=0;resizeParent=1;resizeParentMax=0;resizeLast=0;collapsible=1;marginBottom=0;whiteSpace=wrap;html=1;" parent="1" vertex="1">
          <mxGeometry x="510" y="10" width="300" height="866" as="geometry" />
        </mxCell>
        <mxCell id="oG5_mvqdqvmXoVqTaZC8-14" value="- incomeIndex: Dataframe" style="text;strokeColor=none;fillColor=none;align=left;verticalAlign=top;spacingLeft=4;spacingRight=4;overflow=hidden;rotatable=0;points=[[0,0.5],[1,0.5]];portConstraint=eastwest;whiteSpace=wrap;html=1;" parent="oG5_mvqdqvmXoVqTaZC8-13" vertex="1">
          <mxGeometry y="26" width="300" height="26" as="geometry" />
        </mxCell>
        <mxCell id="oG5_mvqdqvmXoVqTaZC8-51" value="- gdpLabourShare: Dataframe" style="text;strokeColor=none;fillColor=none;align=left;verticalAlign=top;spacingLeft=4;spacingRight=4;overflow=hidden;rotatable=0;points=[[0,0.5],[1,0.5]];portConstraint=eastwest;whiteSpace=wrap;html=1;" parent="oG5_mvqdqvmXoVqTaZC8-13" vertex="1">
          <mxGeometry y="52" width="300" height="26" as="geometry" />
        </mxCell>
        <mxCell id="oG5_mvqdqvmXoVqTaZC8-52" value="- grossFixedCapitalFormation: Dataframe" style="text;strokeColor=none;fillColor=none;align=left;verticalAlign=top;spacingLeft=4;spacingRight=4;overflow=hidden;rotatable=0;points=[[0,0.5],[1,0.5]];portConstraint=eastwest;whiteSpace=wrap;html=1;" parent="oG5_mvqdqvmXoVqTaZC8-13" vertex="1">
          <mxGeometry y="78" width="300" height="26" as="geometry" />
        </mxCell>
        <mxCell id="oG5_mvqdqvmXoVqTaZC8-53" value="- gdpTotal: Dataframe" style="text;strokeColor=none;fillColor=none;align=left;verticalAlign=top;spacingLeft=4;spacingRight=4;overflow=hidden;rotatable=0;points=[[0,0.5],[1,0.5]];portConstraint=eastwest;whiteSpace=wrap;html=1;" parent="oG5_mvqdqvmXoVqTaZC8-13" vertex="1">
          <mxGeometry y="104" width="300" height="26" as="geometry" />
        </mxCell>
        <mxCell id="oG5_mvqdqvmXoVqTaZC8-54" value="- gdpPerCapita: Dataframe" style="text;strokeColor=none;fillColor=none;align=left;verticalAlign=top;spacingLeft=4;spacingRight=4;overflow=hidden;rotatable=0;points=[[0,0.5],[1,0.5]];portConstraint=eastwest;whiteSpace=wrap;html=1;" parent="oG5_mvqdqvmXoVqTaZC8-13" vertex="1">
          <mxGeometry y="130" width="300" height="26" as="geometry" />
        </mxCell>
        <mxCell id="oG5_mvqdqvmXoVqTaZC8-55" value="- gniPerCapita: Dataframe" style="text;strokeColor=none;fillColor=none;align=left;verticalAlign=top;spacingLeft=4;spacingRight=4;overflow=hidden;rotatable=0;points=[[0,0.5],[1,0.5]];portConstraint=eastwest;whiteSpace=wrap;html=1;" parent="oG5_mvqdqvmXoVqTaZC8-13" vertex="1">
          <mxGeometry y="156" width="300" height="26" as="geometry" />
        </mxCell>
        <mxCell id="oG5_mvqdqvmXoVqTaZC8-56" value="- estimatedGniMale: Dataframe" style="text;strokeColor=none;fillColor=none;align=left;verticalAlign=top;spacingLeft=4;spacingRight=4;overflow=hidden;rotatable=0;points=[[0,0.5],[1,0.5]];portConstraint=eastwest;whiteSpace=wrap;html=1;" parent="oG5_mvqdqvmXoVqTaZC8-13" vertex="1">
          <mxGeometry y="182" width="300" height="26" as="geometry" />
        </mxCell>
        <mxCell id="oG5_mvqdqvmXoVqTaZC8-57" value="- estimatedGniFemale: Dataframe" style="text;strokeColor=none;fillColor=none;align=left;verticalAlign=top;spacingLeft=4;spacingRight=4;overflow=hidden;rotatable=0;points=[[0,0.5],[1,0.5]];portConstraint=eastwest;whiteSpace=wrap;html=1;" parent="oG5_mvqdqvmXoVqTaZC8-13" vertex="1">
          <mxGeometry y="208" width="300" height="26" as="geometry" />
        </mxCell>
        <mxCell id="oG5_mvqdqvmXoVqTaZC8-58" value="- domesticCredits: Dataframe" style="text;strokeColor=none;fillColor=none;align=left;verticalAlign=top;spacingLeft=4;spacingRight=4;overflow=hidden;rotatable=0;points=[[0,0.5],[1,0.5]];portConstraint=eastwest;whiteSpace=wrap;html=1;" parent="oG5_mvqdqvmXoVqTaZC8-13" vertex="1">
          <mxGeometry y="234" width="300" height="26" as="geometry" />
        </mxCell>
        <mxCell id="oG5_mvqdqvmXoVqTaZC8-59" value="- excludeRows: string[ ]" style="text;strokeColor=none;fillColor=none;align=left;verticalAlign=top;spacingLeft=4;spacingRight=4;overflow=hidden;rotatable=0;points=[[0,0.5],[1,0.5]];portConstraint=eastwest;whiteSpace=wrap;html=1;" parent="oG5_mvqdqvmXoVqTaZC8-13" vertex="1">
          <mxGeometry y="260" width="300" height="26" as="geometry" />
        </mxCell>
        <mxCell id="oG5_mvqdqvmXoVqTaZC8-61" value="- incomeIndexFinal: Dataframe" style="text;strokeColor=none;fillColor=none;align=left;verticalAlign=top;spacingLeft=4;spacingRight=4;overflow=hidden;rotatable=0;points=[[0,0.5],[1,0.5]];portConstraint=eastwest;whiteSpace=wrap;html=1;" parent="oG5_mvqdqvmXoVqTaZC8-13" vertex="1">
          <mxGeometry y="286" width="300" height="26" as="geometry" />
        </mxCell>
        <mxCell id="oG5_mvqdqvmXoVqTaZC8-62" value="- gdpLabourShareFinal: Dataframe" style="text;strokeColor=none;fillColor=none;align=left;verticalAlign=top;spacingLeft=4;spacingRight=4;overflow=hidden;rotatable=0;points=[[0,0.5],[1,0.5]];portConstraint=eastwest;whiteSpace=wrap;html=1;" parent="oG5_mvqdqvmXoVqTaZC8-13" vertex="1">
          <mxGeometry y="312" width="300" height="26" as="geometry" />
        </mxCell>
        <mxCell id="oG5_mvqdqvmXoVqTaZC8-63" value="- grossFixedCapitalFormationFinal: Dataframe" style="text;strokeColor=none;fillColor=none;align=left;verticalAlign=top;spacingLeft=4;spacingRight=4;overflow=hidden;rotatable=0;points=[[0,0.5],[1,0.5]];portConstraint=eastwest;whiteSpace=wrap;html=1;" parent="oG5_mvqdqvmXoVqTaZC8-13" vertex="1">
          <mxGeometry y="338" width="300" height="26" as="geometry" />
        </mxCell>
        <mxCell id="oG5_mvqdqvmXoVqTaZC8-64" value="- gdpTotalFinal: Dataframe" style="text;strokeColor=none;fillColor=none;align=left;verticalAlign=top;spacingLeft=4;spacingRight=4;overflow=hidden;rotatable=0;points=[[0,0.5],[1,0.5]];portConstraint=eastwest;whiteSpace=wrap;html=1;" parent="oG5_mvqdqvmXoVqTaZC8-13" vertex="1">
          <mxGeometry y="364" width="300" height="26" as="geometry" />
        </mxCell>
        <mxCell id="oG5_mvqdqvmXoVqTaZC8-65" value="- gdpPerCapitaFinal: Dataframe" style="text;strokeColor=none;fillColor=none;align=left;verticalAlign=top;spacingLeft=4;spacingRight=4;overflow=hidden;rotatable=0;points=[[0,0.5],[1,0.5]];portConstraint=eastwest;whiteSpace=wrap;html=1;" parent="oG5_mvqdqvmXoVqTaZC8-13" vertex="1">
          <mxGeometry y="390" width="300" height="26" as="geometry" />
        </mxCell>
        <mxCell id="oG5_mvqdqvmXoVqTaZC8-66" value="- gniPerCapitaFinal: Dataframe" style="text;strokeColor=none;fillColor=none;align=left;verticalAlign=top;spacingLeft=4;spacingRight=4;overflow=hidden;rotatable=0;points=[[0,0.5],[1,0.5]];portConstraint=eastwest;whiteSpace=wrap;html=1;" parent="oG5_mvqdqvmXoVqTaZC8-13" vertex="1">
          <mxGeometry y="416" width="300" height="26" as="geometry" />
        </mxCell>
        <mxCell id="oG5_mvqdqvmXoVqTaZC8-67" value="- estimatedGniMaleFinal: Dataframe" style="text;strokeColor=none;fillColor=none;align=left;verticalAlign=top;spacingLeft=4;spacingRight=4;overflow=hidden;rotatable=0;points=[[0,0.5],[1,0.5]];portConstraint=eastwest;whiteSpace=wrap;html=1;" parent="oG5_mvqdqvmXoVqTaZC8-13" vertex="1">
          <mxGeometry y="442" width="300" height="26" as="geometry" />
        </mxCell>
        <mxCell id="oG5_mvqdqvmXoVqTaZC8-68" value="- estimatedGniFemaleFinal: Dataframe" style="text;strokeColor=none;fillColor=none;align=left;verticalAlign=top;spacingLeft=4;spacingRight=4;overflow=hidden;rotatable=0;points=[[0,0.5],[1,0.5]];portConstraint=eastwest;whiteSpace=wrap;html=1;" parent="oG5_mvqdqvmXoVqTaZC8-13" vertex="1">
          <mxGeometry y="468" width="300" height="26" as="geometry" />
        </mxCell>
        <mxCell id="oG5_mvqdqvmXoVqTaZC8-69" value="- domesticCreditsFinal: Dataframe" style="text;strokeColor=none;fillColor=none;align=left;verticalAlign=top;spacingLeft=4;spacingRight=4;overflow=hidden;rotatable=0;points=[[0,0.5],[1,0.5]];portConstraint=eastwest;whiteSpace=wrap;html=1;" parent="oG5_mvqdqvmXoVqTaZC8-13" vertex="1">
          <mxGeometry y="494" width="300" height="26" as="geometry" />
        </mxCell>
        <mxCell id="oG5_mvqdqvmXoVqTaZC8-15" value="" style="line;strokeWidth=1;fillColor=none;align=left;verticalAlign=middle;spacingTop=-1;spacingLeft=3;spacingRight=3;rotatable=0;labelPosition=right;points=[];portConstraint=eastwest;strokeColor=inherit;" parent="oG5_mvqdqvmXoVqTaZC8-13" vertex="1">
          <mxGeometry y="520" width="300" height="8" as="geometry" />
        </mxCell>
        <mxCell id="oG5_mvqdqvmXoVqTaZC8-16" value="+ __init__(): void" style="text;strokeColor=none;fillColor=none;align=left;verticalAlign=top;spacingLeft=4;spacingRight=4;overflow=hidden;rotatable=0;points=[[0,0.5],[1,0.5]];portConstraint=eastwest;whiteSpace=wrap;html=1;" parent="oG5_mvqdqvmXoVqTaZC8-13" vertex="1">
          <mxGeometry y="528" width="300" height="26" as="geometry" />
        </mxCell>
        <mxCell id="oG5_mvqdqvmXoVqTaZC8-70" value="+ readIncomeFiles(): void" style="text;strokeColor=none;fillColor=none;align=left;verticalAlign=top;spacingLeft=4;spacingRight=4;overflow=hidden;rotatable=0;points=[[0,0.5],[1,0.5]];portConstraint=eastwest;whiteSpace=wrap;html=1;" parent="oG5_mvqdqvmXoVqTaZC8-13" vertex="1">
          <mxGeometry y="554" width="300" height="26" as="geometry" />
        </mxCell>
        <mxCell id="oG5_mvqdqvmXoVqTaZC8-71" value="+ getUniqueCountries(): void" style="text;strokeColor=none;fillColor=none;align=left;verticalAlign=top;spacingLeft=4;spacingRight=4;overflow=hidden;rotatable=0;points=[[0,0.5],[1,0.5]];portConstraint=eastwest;whiteSpace=wrap;html=1;" parent="oG5_mvqdqvmXoVqTaZC8-13" vertex="1">
          <mxGeometry y="580" width="300" height="26" as="geometry" />
        </mxCell>
        <mxCell id="oG5_mvqdqvmXoVqTaZC8-72" value="+ setupPrimaryKeys(Dataframe): void" style="text;strokeColor=none;fillColor=none;align=left;verticalAlign=top;spacingLeft=4;spacingRight=4;overflow=hidden;rotatable=0;points=[[0,0.5],[1,0.5]];portConstraint=eastwest;whiteSpace=wrap;html=1;" parent="oG5_mvqdqvmXoVqTaZC8-13" vertex="1">
          <mxGeometry y="606" width="300" height="26" as="geometry" />
        </mxCell>
        <mxCell id="oG5_mvqdqvmXoVqTaZC8-73" value="+ interpolateMissingYears(): void" style="text;strokeColor=none;fillColor=none;align=left;verticalAlign=top;spacingLeft=4;spacingRight=4;overflow=hidden;rotatable=0;points=[[0,0.5],[1,0.5]];portConstraint=eastwest;whiteSpace=wrap;html=1;" parent="oG5_mvqdqvmXoVqTaZC8-13" vertex="1">
          <mxGeometry y="632" width="300" height="26" as="geometry" />
        </mxCell>
        <mxCell id="oG5_mvqdqvmXoVqTaZC8-74" value="+ restructureData(): void" style="text;strokeColor=none;fillColor=none;align=left;verticalAlign=top;spacingLeft=4;spacingRight=4;overflow=hidden;rotatable=0;points=[[0,0.5],[1,0.5]];portConstraint=eastwest;whiteSpace=wrap;html=1;" parent="oG5_mvqdqvmXoVqTaZC8-13" vertex="1">
          <mxGeometry y="658" width="300" height="26" as="geometry" />
        </mxCell>
        <mxCell id="oG5_mvqdqvmXoVqTaZC8-75" value="+ save(): void" style="text;strokeColor=none;fillColor=none;align=left;verticalAlign=top;spacingLeft=4;spacingRight=4;overflow=hidden;rotatable=0;points=[[0,0.5],[1,0.5]];portConstraint=eastwest;whiteSpace=wrap;html=1;" parent="oG5_mvqdqvmXoVqTaZC8-13" vertex="1">
          <mxGeometry y="684" width="300" height="26" as="geometry" />
        </mxCell>
        <mxCell id="oG5_mvqdqvmXoVqTaZC8-76" value="- _cleanUp(): void" style="text;strokeColor=none;fillColor=none;align=left;verticalAlign=top;spacingLeft=4;spacingRight=4;overflow=hidden;rotatable=0;points=[[0,0.5],[1,0.5]];portConstraint=eastwest;whiteSpace=wrap;html=1;" parent="oG5_mvqdqvmXoVqTaZC8-13" vertex="1">
          <mxGeometry y="710" width="300" height="26" as="geometry" />
        </mxCell>
        <mxCell id="oG5_mvqdqvmXoVqTaZC8-77" value="- _addPrimaryKey(Dataframe, Dataframe): Dataframe" style="text;strokeColor=none;fillColor=none;align=left;verticalAlign=top;spacingLeft=4;spacingRight=4;overflow=hidden;rotatable=0;points=[[0,0.5],[1,0.5]];portConstraint=eastwest;whiteSpace=wrap;html=1;" parent="oG5_mvqdqvmXoVqTaZC8-13" vertex="1">
          <mxGeometry y="736" width="300" height="26" as="geometry" />
        </mxCell>
        <mxCell id="oG5_mvqdqvmXoVqTaZC8-78" value="- _addMissingYearColumns(): void" style="text;strokeColor=none;fillColor=none;align=left;verticalAlign=top;spacingLeft=4;spacingRight=4;overflow=hidden;rotatable=0;points=[[0,0.5],[1,0.5]];portConstraint=eastwest;whiteSpace=wrap;html=1;" parent="oG5_mvqdqvmXoVqTaZC8-13" vertex="1">
          <mxGeometry y="762" width="300" height="26" as="geometry" />
        </mxCell>
        <mxCell id="oG5_mvqdqvmXoVqTaZC8-79" value="- _fillInInterpolationColumns(): void" style="text;strokeColor=none;fillColor=none;align=left;verticalAlign=top;spacingLeft=4;spacingRight=4;overflow=hidden;rotatable=0;points=[[0,0.5],[1,0.5]];portConstraint=eastwest;whiteSpace=wrap;html=1;" parent="oG5_mvqdqvmXoVqTaZC8-13" vertex="1">
          <mxGeometry y="788" width="300" height="26" as="geometry" />
        </mxCell>
        <mxCell id="oG5_mvqdqvmXoVqTaZC8-80" value="- _setNullForSQL(): void" style="text;strokeColor=none;fillColor=none;align=left;verticalAlign=top;spacingLeft=4;spacingRight=4;overflow=hidden;rotatable=0;points=[[0,0.5],[1,0.5]];portConstraint=eastwest;whiteSpace=wrap;html=1;" parent="oG5_mvqdqvmXoVqTaZC8-13" vertex="1">
          <mxGeometry y="814" width="300" height="26" as="geometry" />
        </mxCell>
        <mxCell id="oG5_mvqdqvmXoVqTaZC8-81" value="- _renameColumns(): void" style="text;strokeColor=none;fillColor=none;align=left;verticalAlign=top;spacingLeft=4;spacingRight=4;overflow=hidden;rotatable=0;points=[[0,0.5],[1,0.5]];portConstraint=eastwest;whiteSpace=wrap;html=1;" parent="oG5_mvqdqvmXoVqTaZC8-13" vertex="1">
          <mxGeometry y="840" width="300" height="26" as="geometry" />
        </mxCell>
        <mxCell id="oG5_mvqdqvmXoVqTaZC8-17" value="DataHandler" style="swimlane;fontStyle=1;align=center;verticalAlign=top;childLayout=stackLayout;horizontal=1;startSize=26;horizontalStack=0;resizeParent=1;resizeParentMax=0;resizeLast=0;collapsible=1;marginBottom=0;whiteSpace=wrap;html=1;" parent="1" vertex="1">
          <mxGeometry x="210" y="50" width="280" height="112" as="geometry" />
        </mxCell>
        <mxCell id="oG5_mvqdqvmXoVqTaZC8-18" value="- countryDict: DataFrame" style="text;strokeColor=none;fillColor=none;align=left;verticalAlign=top;spacingLeft=4;spacingRight=4;overflow=hidden;rotatable=0;points=[[0,0.5],[1,0.5]];portConstraint=eastwest;whiteSpace=wrap;html=1;" parent="oG5_mvqdqvmXoVqTaZC8-17" vertex="1">
          <mxGeometry y="26" width="280" height="26" as="geometry" />
        </mxCell>
        <mxCell id="oG5_mvqdqvmXoVqTaZC8-19" value="" style="line;strokeWidth=1;fillColor=none;align=left;verticalAlign=middle;spacingTop=-1;spacingLeft=3;spacingRight=3;rotatable=0;labelPosition=right;points=[];portConstraint=eastwest;strokeColor=inherit;" parent="oG5_mvqdqvmXoVqTaZC8-17" vertex="1">
          <mxGeometry y="52" width="280" height="8" as="geometry" />
        </mxCell>
        <mxCell id="oG5_mvqdqvmXoVqTaZC8-20" value="+ __init__(): void" style="text;strokeColor=none;fillColor=none;align=left;verticalAlign=top;spacingLeft=4;spacingRight=4;overflow=hidden;rotatable=0;points=[[0,0.5],[1,0.5]];portConstraint=eastwest;whiteSpace=wrap;html=1;" parent="oG5_mvqdqvmXoVqTaZC8-17" vertex="1">
          <mxGeometry y="60" width="280" height="26" as="geometry" />
        </mxCell>
        <mxCell id="oG5_mvqdqvmXoVqTaZC8-25" value="+ _alignCountryNames(DataFrame, string): void" style="text;strokeColor=none;fillColor=none;align=left;verticalAlign=top;spacingLeft=4;spacingRight=4;overflow=hidden;rotatable=0;points=[[0,0.5],[1,0.5]];portConstraint=eastwest;whiteSpace=wrap;html=1;" parent="oG5_mvqdqvmXoVqTaZC8-17" vertex="1">
          <mxGeometry y="86" width="280" height="26" as="geometry" />
        </mxCell>
        <mxCell id="oG5_mvqdqvmXoVqTaZC8-82" value="Use" style="endArrow=open;endSize=12;dashed=1;html=1;rounded=0;fontColor=none;noLabel=1;" parent="1" source="oG5_mvqdqvmXoVqTaZC8-1" target="oG5_mvqdqvmXoVqTaZC8-5" edge="1">
          <mxGeometry width="160" relative="1" as="geometry">
            <mxPoint x="370" y="450" as="sourcePoint" />
            <mxPoint x="530" y="450" as="targetPoint" />
          </mxGeometry>
        </mxCell>
        <mxCell id="oG5_mvqdqvmXoVqTaZC8-83" value="Use" style="endArrow=open;endSize=12;dashed=1;html=1;rounded=0;fontColor=none;noLabel=1;" parent="1" source="oG5_mvqdqvmXoVqTaZC8-1" target="oG5_mvqdqvmXoVqTaZC8-9" edge="1">
          <mxGeometry width="160" relative="1" as="geometry">
            <mxPoint x="437" y="134" as="sourcePoint" />
            <mxPoint x="240" y="320" as="targetPoint" />
          </mxGeometry>
        </mxCell>
        <mxCell id="oG5_mvqdqvmXoVqTaZC8-85" value="Use" style="endArrow=open;endSize=12;dashed=1;html=1;rounded=0;fontColor=none;noLabel=1;" parent="1" source="oG5_mvqdqvmXoVqTaZC8-1" target="oG5_mvqdqvmXoVqTaZC8-13" edge="1">
          <mxGeometry width="160" relative="1" as="geometry">
            <mxPoint x="490" y="190" as="sourcePoint" />
            <mxPoint x="490" y="346" as="targetPoint" />
          </mxGeometry>
        </mxCell>
        <mxCell id="oG5_mvqdqvmXoVqTaZC8-86" value="Extends" style="endArrow=block;endSize=16;endFill=0;html=1;rounded=0;fontColor=none;noLabel=1;" parent="1" source="oG5_mvqdqvmXoVqTaZC8-5" target="oG5_mvqdqvmXoVqTaZC8-17" edge="1">
          <mxGeometry width="160" relative="1" as="geometry">
            <mxPoint x="380" y="440" as="sourcePoint" />
            <mxPoint x="540" y="440" as="targetPoint" />
            <Array as="points" />
          </mxGeometry>
        </mxCell>
        <mxCell id="oG5_mvqdqvmXoVqTaZC8-88" value="Extends" style="endArrow=block;endSize=16;endFill=0;html=1;rounded=0;fontColor=none;noLabel=1;" parent="1" source="oG5_mvqdqvmXoVqTaZC8-13" target="oG5_mvqdqvmXoVqTaZC8-17" edge="1">
          <mxGeometry width="160" relative="1" as="geometry">
            <mxPoint x="450" y="290" as="sourcePoint" />
            <mxPoint x="450" y="172" as="targetPoint" />
            <Array as="points" />
          </mxGeometry>
        </mxCell>
        <mxCell id="oG5_mvqdqvmXoVqTaZC8-89" value="Extends" style="endArrow=block;endSize=16;endFill=0;html=1;rounded=0;fontColor=none;noLabel=1;" parent="1" source="oG5_mvqdqvmXoVqTaZC8-9" target="oG5_mvqdqvmXoVqTaZC8-17" edge="1">
          <mxGeometry width="160" relative="1" as="geometry">
            <mxPoint x="230" y="290" as="sourcePoint" />
            <mxPoint x="318" y="172" as="targetPoint" />
            <Array as="points" />
          </mxGeometry>
        </mxCell>
      </root>
    </mxGraphModel>
  </diagram>
  <diagram id="htMc9d9fWGTtO1KLyJ3i" name="ActivityDiagram">
    <mxGraphModel dx="637" dy="928" grid="1" gridSize="10" guides="1" tooltips="1" connect="1" arrows="1" fold="1" page="1" pageScale="1" pageWidth="4681" pageHeight="3300" math="0" shadow="0">
      <root>
        <mxCell id="0" />
        <mxCell id="1" parent="0" />
        <mxCell id="Wo_fFwRHR5cUBd_rFZA_-1" value="" style="strokeWidth=2;html=1;shape=mxgraph.flowchart.start_2;whiteSpace=wrap;fillColor=#000000;" vertex="1" parent="1">
          <mxGeometry x="127" y="507" width="20" height="25" as="geometry" />
        </mxCell>
        <mxCell id="Wo_fFwRHR5cUBd_rFZA_-2" value="" style="endArrow=classic;html=1;rounded=0;exitX=1;exitY=0.5;exitDx=0;exitDy=0;exitPerimeter=0;entryX=0;entryY=0.5;entryDx=0;entryDy=0;entryPerimeter=0;" edge="1" parent="1" source="Wo_fFwRHR5cUBd_rFZA_-1" target="Wo_fFwRHR5cUBd_rFZA_-3">
          <mxGeometry width="50" height="50" relative="1" as="geometry">
            <mxPoint x="462" y="650" as="sourcePoint" />
            <mxPoint x="182" y="440" as="targetPoint" />
            <Array as="points">
              <mxPoint x="162" y="520" />
              <mxPoint x="162" y="470" />
            </Array>
          </mxGeometry>
        </mxCell>
        <mxCell id="Wo_fFwRHR5cUBd_rFZA_-3" value="&lt;font style=&quot;font-size: 9px;&quot;&gt;read demographics files&lt;/font&gt;" style="strokeWidth=1;html=1;shape=mxgraph.flowchart.terminator;whiteSpace=wrap;" vertex="1" parent="1">
          <mxGeometry x="187" y="461" width="105" height="20" as="geometry" />
        </mxCell>
        <mxCell id="Wo_fFwRHR5cUBd_rFZA_-4" value="&lt;font style=&quot;font-size: 9px;&quot;&gt;read countries files&lt;/font&gt;" style="strokeWidth=1;html=1;shape=mxgraph.flowchart.terminator;whiteSpace=wrap;" vertex="1" parent="1">
          <mxGeometry x="187" y="510" width="95" height="20" as="geometry" />
        </mxCell>
        <mxCell id="Wo_fFwRHR5cUBd_rFZA_-5" value="&lt;font style=&quot;font-size: 9px;&quot;&gt;read income files&lt;/font&gt;" style="strokeWidth=1;html=1;shape=mxgraph.flowchart.terminator;whiteSpace=wrap;" vertex="1" parent="1">
          <mxGeometry x="187" y="577" width="95" height="20" as="geometry" />
        </mxCell>
        <mxCell id="Wo_fFwRHR5cUBd_rFZA_-6" value="" style="endArrow=classic;html=1;rounded=0;exitX=1;exitY=0.5;exitDx=0;exitDy=0;exitPerimeter=0;entryX=0;entryY=0.5;entryDx=0;entryDy=0;entryPerimeter=0;" edge="1" parent="1" source="Wo_fFwRHR5cUBd_rFZA_-1" target="Wo_fFwRHR5cUBd_rFZA_-4">
          <mxGeometry width="50" height="50" relative="1" as="geometry">
            <mxPoint x="152" y="530" as="sourcePoint" />
            <mxPoint x="197" y="330" as="targetPoint" />
            <Array as="points">
              <mxPoint x="172" y="520" />
            </Array>
          </mxGeometry>
        </mxCell>
        <mxCell id="Wo_fFwRHR5cUBd_rFZA_-7" value="" style="endArrow=classic;html=1;rounded=0;exitX=1;exitY=0.5;exitDx=0;exitDy=0;exitPerimeter=0;entryX=0;entryY=0.5;entryDx=0;entryDy=0;entryPerimeter=0;" edge="1" parent="1" source="Wo_fFwRHR5cUBd_rFZA_-1" target="Wo_fFwRHR5cUBd_rFZA_-5">
          <mxGeometry width="50" height="50" relative="1" as="geometry">
            <mxPoint x="152" y="530" as="sourcePoint" />
            <mxPoint x="197" y="330" as="targetPoint" />
            <Array as="points">
              <mxPoint x="162" y="520" />
              <mxPoint x="162" y="587" />
            </Array>
          </mxGeometry>
        </mxCell>
        <mxCell id="Wo_fFwRHR5cUBd_rFZA_-8" value="" style="endArrow=classic;html=1;rounded=0;exitX=1;exitY=0.5;exitDx=0;exitDy=0;exitPerimeter=0;" edge="1" parent="1" source="Wo_fFwRHR5cUBd_rFZA_-3">
          <mxGeometry width="50" height="50" relative="1" as="geometry">
            <mxPoint x="258" y="761" as="sourcePoint" />
            <mxPoint x="308" y="471" as="targetPoint" />
          </mxGeometry>
        </mxCell>
        <mxCell id="Wo_fFwRHR5cUBd_rFZA_-9" value="&lt;font style=&quot;font-size: 9px;&quot;&gt;get unique countries&lt;/font&gt;" style="strokeWidth=1;html=1;shape=mxgraph.flowchart.terminator;whiteSpace=wrap;" vertex="1" parent="1">
          <mxGeometry x="308" y="461" width="105" height="20" as="geometry" />
        </mxCell>
        <mxCell id="Wo_fFwRHR5cUBd_rFZA_-11" value="" style="endArrow=classic;html=1;rounded=0;entryX=0;entryY=0.5;entryDx=0;entryDy=0;entryPerimeter=0;" edge="1" parent="1" source="Wo_fFwRHR5cUBd_rFZA_-4" target="Wo_fFwRHR5cUBd_rFZA_-12">
          <mxGeometry width="50" height="50" relative="1" as="geometry">
            <mxPoint x="268" y="520" as="sourcePoint" />
            <mxPoint x="298" y="520" as="targetPoint" />
          </mxGeometry>
        </mxCell>
        <mxCell id="Wo_fFwRHR5cUBd_rFZA_-12" value="&lt;font style=&quot;font-size: 9px;&quot;&gt;get unique countries&lt;/font&gt;" style="strokeWidth=1;html=1;shape=mxgraph.flowchart.terminator;whiteSpace=wrap;" vertex="1" parent="1">
          <mxGeometry x="308" y="510" width="105" height="20" as="geometry" />
        </mxCell>
        <mxCell id="Wo_fFwRHR5cUBd_rFZA_-13" value="" style="endArrow=classic;html=1;rounded=0;entryX=0;entryY=0.5;entryDx=0;entryDy=0;entryPerimeter=0;" edge="1" parent="1" source="Wo_fFwRHR5cUBd_rFZA_-5" target="Wo_fFwRHR5cUBd_rFZA_-14">
          <mxGeometry width="50" height="50" relative="1" as="geometry">
            <mxPoint x="268" y="587" as="sourcePoint" />
            <mxPoint x="298" y="587" as="targetPoint" />
          </mxGeometry>
        </mxCell>
        <mxCell id="Wo_fFwRHR5cUBd_rFZA_-14" value="&lt;font style=&quot;font-size: 9px;&quot;&gt;get unique countries&lt;/font&gt;" style="strokeWidth=1;html=1;shape=mxgraph.flowchart.terminator;whiteSpace=wrap;" vertex="1" parent="1">
          <mxGeometry x="318" y="577" width="105" height="20" as="geometry" />
        </mxCell>
        <mxCell id="Wo_fFwRHR5cUBd_rFZA_-15" value="&lt;font style=&quot;font-size: 9px;&quot;&gt;join unique countries&lt;/font&gt;" style="strokeWidth=1;html=1;shape=mxgraph.flowchart.terminator;whiteSpace=wrap;" vertex="1" parent="1">
          <mxGeometry x="430" y="510" width="105" height="20" as="geometry" />
        </mxCell>
        <mxCell id="Wo_fFwRHR5cUBd_rFZA_-23" value="" style="endArrow=classic;html=1;rounded=0;" edge="1" parent="1" source="Wo_fFwRHR5cUBd_rFZA_-9" target="Wo_fFwRHR5cUBd_rFZA_-15">
          <mxGeometry width="50" height="50" relative="1" as="geometry">
            <mxPoint x="260" y="330" as="sourcePoint" />
            <mxPoint x="290" y="330" as="targetPoint" />
          </mxGeometry>
        </mxCell>
        <mxCell id="Wo_fFwRHR5cUBd_rFZA_-24" value="" style="endArrow=classic;html=1;rounded=0;" edge="1" parent="1" source="Wo_fFwRHR5cUBd_rFZA_-12" target="Wo_fFwRHR5cUBd_rFZA_-15">
          <mxGeometry width="50" height="50" relative="1" as="geometry">
            <mxPoint x="250" y="530" as="sourcePoint" />
            <mxPoint x="290" y="530" as="targetPoint" />
          </mxGeometry>
        </mxCell>
        <mxCell id="Wo_fFwRHR5cUBd_rFZA_-25" value="" style="endArrow=classic;html=1;rounded=0;" edge="1" parent="1" source="Wo_fFwRHR5cUBd_rFZA_-14" target="Wo_fFwRHR5cUBd_rFZA_-15">
          <mxGeometry width="50" height="50" relative="1" as="geometry">
            <mxPoint x="395" y="530" as="sourcePoint" />
            <mxPoint x="440" y="530" as="targetPoint" />
          </mxGeometry>
        </mxCell>
        <mxCell id="Wo_fFwRHR5cUBd_rFZA_-26" value="&lt;font style=&quot;font-size: 9px;&quot;&gt;setup primary keys&lt;/font&gt;" style="strokeWidth=1;html=1;shape=mxgraph.flowchart.terminator;whiteSpace=wrap;" vertex="1" parent="1">
          <mxGeometry x="550" y="461" width="105" height="20" as="geometry" />
        </mxCell>
        <mxCell id="Wo_fFwRHR5cUBd_rFZA_-27" value="" style="endArrow=classic;html=1;rounded=0;" edge="1" parent="1" source="Wo_fFwRHR5cUBd_rFZA_-9" target="Wo_fFwRHR5cUBd_rFZA_-26">
          <mxGeometry width="50" height="50" relative="1" as="geometry">
            <mxPoint x="350" y="491" as="sourcePoint" />
            <mxPoint x="485" y="671" as="targetPoint" />
          </mxGeometry>
        </mxCell>
        <mxCell id="Wo_fFwRHR5cUBd_rFZA_-28" value="" style="endArrow=classic;html=1;rounded=0;" edge="1" parent="1" source="Wo_fFwRHR5cUBd_rFZA_-15" target="Wo_fFwRHR5cUBd_rFZA_-26">
          <mxGeometry width="50" height="50" relative="1" as="geometry">
            <mxPoint x="350" y="340" as="sourcePoint" />
            <mxPoint x="485" y="520" as="targetPoint" />
          </mxGeometry>
        </mxCell>
        <mxCell id="Wo_fFwRHR5cUBd_rFZA_-29" value="&lt;font style=&quot;font-size: 9px;&quot;&gt;setup primary keys&lt;/font&gt;" style="strokeWidth=1;html=1;shape=mxgraph.flowchart.terminator;whiteSpace=wrap;" vertex="1" parent="1">
          <mxGeometry x="550" y="510" width="105" height="20" as="geometry" />
        </mxCell>
        <mxCell id="Wo_fFwRHR5cUBd_rFZA_-30" value="&lt;font style=&quot;font-size: 9px;&quot;&gt;setup primary keys&lt;/font&gt;" style="strokeWidth=1;html=1;shape=mxgraph.flowchart.terminator;whiteSpace=wrap;" vertex="1" parent="1">
          <mxGeometry x="550" y="577" width="105" height="20" as="geometry" />
        </mxCell>
        <mxCell id="Wo_fFwRHR5cUBd_rFZA_-31" value="" style="endArrow=classic;html=1;rounded=0;" edge="1" parent="1" source="Wo_fFwRHR5cUBd_rFZA_-15" target="Wo_fFwRHR5cUBd_rFZA_-29">
          <mxGeometry width="50" height="50" relative="1" as="geometry">
            <mxPoint x="395" y="530" as="sourcePoint" />
            <mxPoint x="440" y="530" as="targetPoint" />
          </mxGeometry>
        </mxCell>
        <mxCell id="Wo_fFwRHR5cUBd_rFZA_-32" value="" style="endArrow=classic;html=1;rounded=0;" edge="1" parent="1" source="Wo_fFwRHR5cUBd_rFZA_-14" target="Wo_fFwRHR5cUBd_rFZA_-30">
          <mxGeometry width="50" height="50" relative="1" as="geometry">
            <mxPoint x="350" y="207" as="sourcePoint" />
            <mxPoint x="485" y="387" as="targetPoint" />
          </mxGeometry>
        </mxCell>
        <mxCell id="Wo_fFwRHR5cUBd_rFZA_-33" value="" style="endArrow=classic;html=1;rounded=0;" edge="1" parent="1" source="Wo_fFwRHR5cUBd_rFZA_-15" target="Wo_fFwRHR5cUBd_rFZA_-30">
          <mxGeometry width="50" height="50" relative="1" as="geometry">
            <mxPoint x="405" y="730" as="sourcePoint" />
            <mxPoint x="560" y="730" as="targetPoint" />
          </mxGeometry>
        </mxCell>
        <mxCell id="Wo_fFwRHR5cUBd_rFZA_-34" value="&lt;font style=&quot;font-size: 9px;&quot;&gt;interpolate missing years&lt;/font&gt;" style="strokeWidth=1;html=1;shape=mxgraph.flowchart.terminator;whiteSpace=wrap;" vertex="1" parent="1">
          <mxGeometry x="671" y="577" width="120" height="20" as="geometry" />
        </mxCell>
        <mxCell id="Wo_fFwRHR5cUBd_rFZA_-35" value="" style="endArrow=classic;html=1;rounded=0;" edge="1" parent="1" source="Wo_fFwRHR5cUBd_rFZA_-30" target="Wo_fFwRHR5cUBd_rFZA_-34">
          <mxGeometry width="50" height="50" relative="1" as="geometry">
            <mxPoint x="405" y="597" as="sourcePoint" />
            <mxPoint x="560" y="597" as="targetPoint" />
          </mxGeometry>
        </mxCell>
        <mxCell id="Wo_fFwRHR5cUBd_rFZA_-36" value="&lt;font style=&quot;font-size: 9px;&quot;&gt;columns to rows&lt;/font&gt;" style="strokeWidth=1;html=1;shape=mxgraph.flowchart.terminator;whiteSpace=wrap;" vertex="1" parent="1">
          <mxGeometry x="686" y="533" width="90" height="20" as="geometry" />
        </mxCell>
        <mxCell id="Wo_fFwRHR5cUBd_rFZA_-37" value="" style="endArrow=classic;html=1;rounded=0;" edge="1" parent="1" source="Wo_fFwRHR5cUBd_rFZA_-34" target="Wo_fFwRHR5cUBd_rFZA_-36">
          <mxGeometry width="50" height="50" relative="1" as="geometry">
            <mxPoint x="656" y="613" as="sourcePoint" />
            <mxPoint x="681" y="613" as="targetPoint" />
          </mxGeometry>
        </mxCell>
        <mxCell id="Wo_fFwRHR5cUBd_rFZA_-39" value="&lt;font style=&quot;font-size: 9px;&quot;&gt;save data&lt;/font&gt;" style="strokeWidth=1;html=1;shape=mxgraph.flowchart.terminator;whiteSpace=wrap;" vertex="1" parent="1">
          <mxGeometry x="820" y="509.5" width="105" height="20" as="geometry" />
        </mxCell>
        <mxCell id="Wo_fFwRHR5cUBd_rFZA_-40" value="" style="endArrow=none;html=1;rounded=0;strokeWidth=3;" edge="1" parent="1">
          <mxGeometry width="50" height="50" relative="1" as="geometry">
            <mxPoint x="801" y="550" as="sourcePoint" />
            <mxPoint x="801" y="490" as="targetPoint" />
          </mxGeometry>
        </mxCell>
        <mxCell id="Wo_fFwRHR5cUBd_rFZA_-42" value="" style="endArrow=classic;html=1;rounded=0;" edge="1" parent="1" source="Wo_fFwRHR5cUBd_rFZA_-26">
          <mxGeometry width="50" height="50" relative="1" as="geometry">
            <mxPoint x="499" y="520" as="sourcePoint" />
            <mxPoint x="800" y="500" as="targetPoint" />
          </mxGeometry>
        </mxCell>
        <mxCell id="Wo_fFwRHR5cUBd_rFZA_-43" value="" style="endArrow=classic;html=1;rounded=0;" edge="1" parent="1" source="Wo_fFwRHR5cUBd_rFZA_-29">
          <mxGeometry width="50" height="50" relative="1" as="geometry">
            <mxPoint x="626" y="340" as="sourcePoint" />
            <mxPoint x="800" y="520" as="targetPoint" />
          </mxGeometry>
        </mxCell>
        <mxCell id="Wo_fFwRHR5cUBd_rFZA_-44" value="" style="endArrow=classic;html=1;rounded=0;exitX=1;exitY=0.5;exitDx=0;exitDy=0;exitPerimeter=0;" edge="1" parent="1" source="Wo_fFwRHR5cUBd_rFZA_-36">
          <mxGeometry width="50" height="50" relative="1" as="geometry">
            <mxPoint x="656" y="530" as="sourcePoint" />
            <mxPoint x="800" y="530" as="targetPoint" />
          </mxGeometry>
        </mxCell>
        <mxCell id="Wo_fFwRHR5cUBd_rFZA_-45" value="" style="endArrow=classic;html=1;rounded=0;" edge="1" parent="1" target="Wo_fFwRHR5cUBd_rFZA_-39">
          <mxGeometry width="50" height="50" relative="1" as="geometry">
            <mxPoint x="800" y="520" as="sourcePoint" />
            <mxPoint x="815" y="530" as="targetPoint" />
          </mxGeometry>
        </mxCell>
        <mxCell id="Wo_fFwRHR5cUBd_rFZA_-46" value="" style="strokeWidth=1;html=1;shape=mxgraph.flowchart.start_2;whiteSpace=wrap;fillColor=#000000;strokeColor=none;" vertex="1" parent="1">
          <mxGeometry x="940" y="507" width="20" height="25" as="geometry" />
        </mxCell>
        <mxCell id="Wo_fFwRHR5cUBd_rFZA_-47" value="" style="endArrow=classic;html=1;rounded=0;" edge="1" parent="1" source="Wo_fFwRHR5cUBd_rFZA_-39" target="Wo_fFwRHR5cUBd_rFZA_-46">
          <mxGeometry width="50" height="50" relative="1" as="geometry">
            <mxPoint x="810" y="530" as="sourcePoint" />
            <mxPoint x="830" y="530" as="targetPoint" />
          </mxGeometry>
        </mxCell>
      </root>
    </mxGraphModel>
  </diagram>
</mxfile>
